<svg xmlns="http://www.w3.org/2000/svg" viewBox="0 0 32 32">
  <rect width="32" height="32" rx="8" fill="#4a3728"/>
  <path fill="#f5ede0" d="M12.19 10.35c-2.04 2.29-3.44 5.58-3.57 5.89L5 14.69l4.05-4.05c.47-.47 1.15-.68 1.81-.55l1.33.26zM14.17 21s3.74-1.55 5.89-3.7c5.4-5.4 4.5-9.62 4.21-10.57-.95-.3-5.17-1.19-10.57 4.21C11.55 13.09 10 16.83 10 16.83L14.17 21zm6.48-2.19c-2.29 2.04-5.58 3.44-5.89 3.57L16.31 26l4.05-4.05c.47-.47.68-1.15.55-1.81l-.26-1.33zM12 22c0 .83-.34 1.58-.88 2.12C9.94 25.3 5 26 5 26s.7-4.94 1.88-6.12C7.42 19.34 8.17 19 9 19c1.66 0 3 1.34 3 3zm4-9c0-1.1.9-2 2-2s2 .9 2 2-.9 2-2 2-2-.9-2-2z"/>
</svg>
